<svg version="1.1" viewBox="0.0 0.0 958.8346456692914 719.1259842519685" fill="none" stroke="none" stroke-linecap="square" stroke-miterlimit="10" xmlns:xlink="http://www.w3.org/1999/xlink" xmlns="http://www.w3.org/2000/svg"><clipPath id="p.0"><path d="m0 0l958.83466 0l0 719.126l-958.83466 0l0 -719.126z" clip-rule="nonzero"/></clipPath><g clip-path="url(#p.0)"><path fill="#000000" fill-opacity="0.0" d="m0 0l958.83466 0l0 719.126l-958.83466 0z" fill-rule="evenodd"/><path fill="#efefef" d="m392.58267 306.91864l88.25198 0l0 39.40158l-88.25198 0z" fill-rule="evenodd"/><path fill="#bfbfbf" d="m480.83466 306.91864l13.13385 -13.13385l0 39.40155l-13.13385 13.133881z" fill-rule="evenodd"/><path fill="#f2f2f2" d="m392.58267 306.91864l13.13385 -13.13385l88.25198 0l-13.13385 13.13385z" fill-rule="evenodd"/><path fill="#000000" fill-opacity="0.0" d="m392.58267 306.91864l13.13385 -13.13385l88.25198 0l0 39.40155l-13.13385 13.133881l-88.25198 0zm0 0l88.25198 0l13.13385 -13.13385m-13.13385 13.13385l0 39.40158" fill-rule="evenodd"/><path stroke="#000000" stroke-width="1.0" stroke-linejoin="round" stroke-linecap="butt" d="m392.58267 306.91864l13.13385 -13.13385l88.25198 0l0 39.40155l-13.13385 13.133881l-88.25198 0zm0 0l88.25198 0l13.13385 -13.13385m-13.13385 13.13385l0 39.40158" fill-rule="evenodd"/><path fill="#000000" d="m416.5261 330.35944l0 -7.625l5.515625 0l0 0.890625l-4.5 0l0 2.34375l4.21875 0l0 0.890625l-4.21875 0l0 2.59375l4.671875 0l0 0.90625l-5.6875 0zm10.5763855 -0.6875q-0.53125 0.453125 -1.015625 0.640625q-0.46875 0.171875 -1.015625 0.171875q-0.921875 0 -1.40625 -0.4375q-0.484375 -0.453125 -0.484375 -1.140625q0 -0.40625 0.171875 -0.734375q0.1875 -0.34375 0.484375 -0.546875q0.3125 -0.203125 0.6875 -0.3125q0.265625 -0.0625 0.828125 -0.140625q1.125 -0.125 1.671875 -0.3125q0 -0.203125 0 -0.25q0 -0.578125 -0.265625 -0.8125q-0.359375 -0.3125 -1.0625 -0.3125q-0.65625 0 -0.984375 0.234375q-0.3125 0.234375 -0.453125 0.8125l-0.921875 -0.125q0.125 -0.578125 0.40625 -0.9375q0.296875 -0.375 0.828125 -0.5625q0.546875 -0.203125 1.25 -0.203125q0.71875 0 1.15625 0.171875q0.4375 0.171875 0.640625 0.421875q0.21875 0.25 0.296875 0.640625q0.046875 0.234375 0.046875 0.859375l0 1.25q0 1.296875 0.0625 1.65625q0.0625 0.34375 0.234375 0.65625l-0.96875 0q-0.15625 -0.296875 -0.1875 -0.6875zm-0.078125 -2.078125q-0.515625 0.203125 -1.53125 0.34375q-0.578125 0.078125 -0.828125 0.1875q-0.234375 0.109375 -0.359375 0.3125q-0.125 0.1875 -0.125 0.4375q0 0.375 0.28125 0.625q0.28125 0.25 0.828125 0.25q0.53125 0 0.953125 -0.234375q0.421875 -0.234375 0.625 -0.65625q0.15625 -0.3125 0.15625 -0.9375l0 -0.328125zm6.020233 2.765625l0 -0.8125q-0.65625 0.9375 -1.75 0.9375q-0.5 0 -0.921875 -0.1875q-0.421875 -0.1875 -0.625 -0.46875q-0.203125 -0.28125 -0.296875 -0.703125q-0.046875 -0.265625 -0.046875 -0.875l0 -3.421875l0.9375 0l0 3.0625q0 0.734375 0.046875 1.0q0.09375 0.359375 0.375 0.578125q0.296875 0.203125 0.703125 0.203125q0.421875 0 0.796875 -0.203125q0.375 -0.21875 0.515625 -0.59375q0.15625 -0.375 0.15625 -1.078125l0 -2.96875l0.9375 0l0 5.53125l-0.828125 0zm5.480896 0l0 -4.796875l-0.828125 0l0 -0.734375l0.828125 0l0 -0.578125q0 -0.5625 0.109375 -0.828125q0.125 -0.375 0.46875 -0.59375q0.34375 -0.234375 0.953125 -0.234375q0.390625 0 0.875 0.09375l-0.140625 0.828125q-0.296875 -0.0625 -0.546875 -0.0625q-0.421875 0 -0.609375 0.1875q-0.171875 0.1875 -0.171875 0.6875l0 0.5l1.078125 0l0 0.734375l-1.078125 0l0 4.796875l-0.9375 0zm2.7419128 -6.546875l0 -1.078125l0.9375 0l0 1.078125l-0.9375 0zm0 6.546875l0 -5.53125l0.9375 0l0 5.53125l-0.9375 0zm2.3518372 0l0 -7.625l0.9375 0l0 7.625l-0.9375 0zm4.4299927 -0.84375l0.125 0.828125q-0.390625 0.09375 -0.703125 0.09375q-0.5 0 -0.78125 -0.15625q-0.28125 -0.171875 -0.40625 -0.4375q-0.109375 -0.265625 -0.109375 -1.109375l0 -3.171875l-0.6875 0l0 -0.734375l0.6875 0l0 -1.359375l0.9375 -0.5625l0 1.921875l0.9375 0l0 0.734375l-0.9375 0l0 3.234375q0 0.390625 0.046875 0.515625q0.046875 0.109375 0.15625 0.1875q0.109375 0.0625 0.328125 0.0625q0.15625 0 0.40625 -0.046875zm0.8981323 0.84375l0 -5.53125l0.84375 0l0 0.84375q0.328125 -0.59375 0.59375 -0.78125q0.28125 -0.1875 0.609375 -0.1875q0.46875 0 0.953125 0.3125l-0.3125 0.859375q-0.34375 -0.203125 -0.6875 -0.203125q-0.3125 0 -0.5625 0.1875q-0.234375 0.1875 -0.34375 0.515625q-0.15625 0.5 -0.15625 1.09375l0 2.890625l-0.9375 0zm7.3454895 -1.78125l0.96875 0.125q-0.234375 0.84375 -0.859375 1.3125q-0.609375 0.46875 -1.578125 0.46875q-1.203125 0 -1.921875 -0.75q-0.703125 -0.75 -0.703125 -2.09375q0 -1.390625 0.71875 -2.15625q0.71875 -0.78125 1.859375 -0.78125q1.109375 0 1.8125 0.765625q0.703125 0.75 0.703125 2.125q0 0.078125 0 0.234375l-4.125 0q0.046875 0.921875 0.515625 1.40625q0.46875 0.484375 1.15625 0.484375q0.515625 0 0.875 -0.265625q0.359375 -0.28125 0.578125 -0.875zm-3.078125 -1.515625l3.09375 0q-0.0625 -0.6875 -0.359375 -1.046875q-0.453125 -0.53125 -1.15625 -0.53125q-0.640625 0 -1.09375 0.4375q-0.4375 0.421875 -0.484375 1.140625zm0.75 -2.921875l0.6875 -1.453125l1.234375 0l-1.140625 1.453125l-0.78125 0z" fill-rule="nonzero"/><path fill="#efefef" d="m200.09448 299.9029l0 0c0 3.3789368 10.956696 6.118103 24.472443 6.118103c13.515762 0 24.472443 -2.7391663 24.472443 -6.118103l0 43.700775c0 3.3789368 -10.95668 6.118103 -24.472443 6.118103c-13.515747 0 -24.472443 -2.7391663 -24.472443 -6.118103z" fill-rule="evenodd"/><path fill="#f5f5f5" d="m200.09448 299.9029l0 0c0 -3.3789368 10.956696 -6.118103 24.472443 -6.118103c13.515762 0 24.472443 2.7391663 24.472443 6.118103l0 0c0 3.3789368 -10.95668 6.118103 -24.472443 6.118103c-13.515747 0 -24.472443 -2.7391663 -24.472443 -6.118103z" fill-rule="evenodd"/><path fill="#000000" fill-opacity="0.0" d="m249.03937 299.9029l0 0c0 3.3789368 -10.95668 6.118103 -24.472443 6.118103c-13.515747 0 -24.472443 -2.7391663 -24.472443 -6.118103l0 0c0 -3.3789368 10.956696 -6.118103 24.472443 -6.118103c13.515762 0 24.472443 2.7391663 24.472443 6.118103l0 43.700775c0 3.3789368 -10.95668 6.118103 -24.472443 6.118103c-13.515747 0 -24.472443 -2.7391663 -24.472443 -6.118103l0 -43.700775" fill-rule="evenodd"/><path stroke="#000000" stroke-width="1.0" stroke-linejoin="round" stroke-linecap="butt" d="m249.03937 299.9029l0 0c0 3.3789368 -10.95668 6.118103 -24.472443 6.118103c-13.515747 0 -24.472443 -2.7391663 -24.472443 -6.118103l0 0c0 -3.3789368 10.956696 -6.118103 24.472443 -6.118103c13.515762 0 24.472443 2.7391663 24.472443 6.118103l0 43.700775c0 3.3789368 -10.95668 6.118103 -24.472443 6.118103c-13.515747 0 -24.472443 -2.7391663 -24.472443 -6.118103l0 -43.700775" fill-rule="evenodd"/><path fill="#000000" d="m209.7351 322.49234l0 -5.734375l4.140625 0l0 0.6875l-3.390625 0l0 1.75l3.171875 0l0 0.671875l-3.171875 0l0 1.953125l3.515625 0l0 0.671875l-4.265625 0zm7.9296875 -0.515625q-0.390625 0.328125 -0.75 0.46875q-0.359375 0.140625 -0.78125 0.140625q-0.671875 0 -1.046875 -0.328125q-0.359375 -0.34375 -0.359375 -0.859375q0 -0.3125 0.125 -0.5625q0.140625 -0.25 0.359375 -0.390625q0.234375 -0.15625 0.515625 -0.234375q0.203125 -0.0625 0.625 -0.109375q0.859375 -0.109375 1.25 -0.25q0.015625 -0.140625 0.015625 -0.171875q0 -0.4375 -0.203125 -0.609375q-0.265625 -0.234375 -0.796875 -0.234375q-0.5 0 -0.734375 0.171875q-0.234375 0.171875 -0.359375 0.609375l-0.6875 -0.09375q0.09375 -0.4375 0.3125 -0.703125q0.21875 -0.28125 0.625 -0.421875q0.40625 -0.15625 0.9375 -0.15625q0.53125 0 0.859375 0.125q0.34375 0.125 0.5 0.328125q0.15625 0.1875 0.21875 0.46875q0.03125 0.1875 0.03125 0.65625l0 0.9375q0 0.96875 0.046875 1.234375q0.046875 0.265625 0.171875 0.5l-0.734375 0q-0.109375 -0.21875 -0.140625 -0.515625zm-0.0625 -1.5625q-0.375 0.15625 -1.140625 0.265625q-0.4375 0.0625 -0.625 0.140625q-0.171875 0.078125 -0.265625 0.234375q-0.09375 0.140625 -0.09375 0.328125q0 0.28125 0.203125 0.46875q0.21875 0.1875 0.625 0.1875q0.40625 0 0.71875 -0.171875q0.328125 -0.1875 0.46875 -0.5q0.109375 -0.234375 0.109375 -0.703125l0 -0.25zm4.5273438 2.078125l0 -0.609375q-0.484375 0.703125 -1.3125 0.703125q-0.375 0 -0.703125 -0.140625q-0.3125 -0.140625 -0.46875 -0.34375q-0.140625 -0.21875 -0.203125 -0.53125q-0.046875 -0.203125 -0.046875 -0.65625l0 -2.578125l0.703125 0l0 2.3125q0 0.546875 0.046875 0.734375q0.0625 0.28125 0.265625 0.4375q0.21875 0.15625 0.546875 0.15625q0.3125 0 0.578125 -0.15625q0.28125 -0.171875 0.390625 -0.4375q0.125 -0.28125 0.125 -0.8125l0 -2.234375l0.703125 0l0 4.15625l-0.625 0z" fill-rule="nonzero"/><path fill="#000000" d="m209.62573 334.0861l0 -5.75l0.640625 0l0 0.546875q0.21875 -0.3125 0.5 -0.46875q0.296875 -0.171875 0.703125 -0.171875q0.53125 0 0.9375 0.28125q0.40625 0.265625 0.609375 0.765625q0.203125 0.5 0.203125 1.09375q0 0.640625 -0.234375 1.15625q-0.21875 0.5 -0.65625 0.78125q-0.4375 0.265625 -0.90625 0.265625q-0.359375 0 -0.640625 -0.140625q-0.28125 -0.15625 -0.453125 -0.390625l0 2.03125l-0.703125 0zm0.640625 -3.640625q0 0.796875 0.3125 1.1875q0.328125 0.375 0.796875 0.375q0.46875 0 0.796875 -0.390625q0.328125 -0.40625 0.328125 -1.234375q0 -0.796875 -0.328125 -1.1875q-0.3125 -0.390625 -0.765625 -0.390625q-0.453125 0 -0.796875 0.421875q-0.34375 0.40625 -0.34375 1.21875zm3.7929688 2.046875l0 -4.15625l0.640625 0l0 0.640625q0.234375 -0.453125 0.4375 -0.59375q0.21875 -0.140625 0.453125 -0.140625q0.359375 0 0.734375 0.234375l-0.25 0.65625q-0.25 -0.15625 -0.515625 -0.15625q-0.234375 0 -0.421875 0.140625q-0.171875 0.140625 -0.25 0.375q-0.125 0.375 -0.125 0.828125l0 2.171875l-0.703125 0zm5.5234375 -1.34375l0.71875 0.09375q-0.171875 0.640625 -0.640625 1.0q-0.453125 0.34375 -1.1875 0.34375q-0.90625 0 -1.4375 -0.5625q-0.53125 -0.5625 -0.53125 -1.578125q0 -1.046875 0.53125 -1.625q0.546875 -0.578125 1.40625 -0.578125q0.828125 0 1.359375 0.578125q0.53125 0.5625 0.53125 1.59375q0 0.0625 -0.015625 0.1875l-3.09375 0q0.046875 0.671875 0.390625 1.046875q0.34375 0.359375 0.875 0.359375q0.375 0 0.640625 -0.203125q0.28125 -0.203125 0.453125 -0.65625zm-2.3125 -1.125l2.3125 0q-0.046875 -0.53125 -0.265625 -0.796875q-0.328125 -0.40625 -0.875 -0.40625q-0.484375 0 -0.8125 0.328125q-0.328125 0.328125 -0.359375 0.875zm0.8125 -2.203125l0.515625 -1.09375l0.921875 0l-0.859375 1.09375l-0.578125 0zm3.2773438 4.671875l0 -3.609375l-0.625 0l0 -0.546875l0.625 0l0 -0.4375q0 -0.421875 0.0625 -0.625q0.109375 -0.265625 0.359375 -0.4375q0.265625 -0.171875 0.71875 -0.171875q0.296875 0 0.65625 0.078125l-0.109375 0.609375q-0.21875 -0.046875 -0.40625 -0.046875q-0.328125 0 -0.46875 0.140625q-0.125 0.140625 -0.125 0.515625l0 0.375l0.8125 0l0 0.546875l-0.8125 0l0 3.609375l-0.6875 0zm2.0507812 -4.921875l0 -0.8125l0.703125 0l0 0.8125l-0.703125 0zm0 4.921875l0 -4.15625l0.703125 0l0 4.15625l-0.703125 0zm1.7617188 0l0 -5.734375l0.703125 0l0 5.734375l-0.703125 0zm3.3242188 -0.625l0.109375 0.609375q-0.296875 0.078125 -0.53125 0.078125q-0.390625 0 -0.609375 -0.125q-0.203125 -0.125 -0.296875 -0.3125q-0.078125 -0.203125 -0.078125 -0.84375l0 -2.390625l-0.515625 0l0 -0.546875l0.515625 0l0 -1.015625l0.703125 -0.421875l0 1.4375l0.703125 0l0 0.546875l-0.703125 0l0 2.4375q0 0.296875 0.03125 0.390625q0.046875 0.078125 0.125 0.125q0.078125 0.046875 0.234375 0.046875q0.125 0 0.3125 -0.015625zm0.67578125 0.625l0 -4.15625l0.640625 0l0 0.640625q0.234375 -0.453125 0.4375 -0.59375q0.21875 -0.140625 0.453125 -0.140625q0.359375 0 0.734375 0.234375l-0.25 0.65625q-0.25 -0.15625 -0.515625 -0.15625q-0.234375 0 -0.421875 0.140625q-0.171875 0.140625 -0.25 0.375q-0.125 0.375 -0.125 0.828125l0 2.171875l-0.703125 0zm5.5234375 -1.34375l0.71875 0.09375q-0.171875 0.640625 -0.640625 1.0q-0.453125 0.34375 -1.1875 0.34375q-0.90625 0 -1.4375 -0.5625q-0.53125 -0.5625 -0.53125 -1.578125q0 -1.046875 0.53125 -1.625q0.546875 -0.578125 1.40625 -0.578125q0.828125 0 1.359375 0.578125q0.53125 0.5625 0.53125 1.59375q0 0.0625 -0.015625 0.1875l-3.09375 0q0.046875 0.671875 0.390625 1.046875q0.34375 0.359375 0.875 0.359375q0.375 0 0.640625 -0.203125q0.28125 -0.203125 0.453125 -0.65625zm-2.3125 -1.125l2.3125 0q-0.046875 -0.53125 -0.265625 -0.796875q-0.328125 -0.40625 -0.875 -0.40625q-0.484375 0 -0.8125 0.328125q-0.328125 0.328125 -0.359375 0.875zm0.8125 -2.203125l0.515625 -1.09375l0.921875 0l-0.859375 1.09375l-0.578125 0z" fill-rule="nonzero"/><path fill="#efefef" d="m33.199474 325.5643l0.40945053 0l0 6.551178l-0.40945053 0zm0.81889725 0l0.81889725 0l0 6.551178l-0.81889725 0zm1.2283478 0l142.55118 0l0 -3.2755737l6.551178 6.551178l-6.551178 6.551178l0 -3.2756042l-142.55118 0z" fill-rule="evenodd"/><path stroke="#000000" stroke-width="1.0" stroke-linejoin="round" stroke-linecap="butt" d="m33.199474 325.5643l0.40945053 0l0 6.551178l-0.40945053 0zm0.81889725 0l0.81889725 0l0 6.551178l-0.81889725 0zm1.2283478 0l142.55118 0l0 -3.2755737l6.551178 6.551178l-6.551178 6.551178l0 -3.2756042l-142.55118 0z" fill-rule="evenodd"/><path fill="#efefef" d="m274.6378 325.5643l0.40945435 0l0 6.551178l-0.40945435 0zm0.8189087 0l0.8189087 0l0 6.551178l-0.8189087 0zm1.2283325 0l83.74805 0l0 -3.2755737l6.551178 6.551178l-6.551178 6.551178l0 -3.2756042l-83.74805 0z" fill-rule="evenodd"/><path stroke="#000000" stroke-width="1.0" stroke-linejoin="round" stroke-linecap="butt" d="m274.6378 325.5643l0.40945435 0l0 6.551178l-0.40945435 0zm0.8189087 0l0.8189087 0l0 6.551178l-0.8189087 0zm1.2283325 0l83.74805 0l0 -3.2755737l6.551178 6.551178l-6.551178 6.551178l0 -3.2756042l-83.74805 0z" fill-rule="evenodd"/><path fill="#efefef" d="m485.47507 175.83464l49.385834 0l0 23.244095l-49.385834 0z" fill-rule="evenodd"/><path fill="#bfbfbf" d="m534.8609 175.83464l7.748047 -7.7480316l0 23.244095l-7.748047 7.7480316z" fill-rule="evenodd"/><path fill="#f2f2f2" d="m485.47507 175.83464l7.7480164 -7.7480316l49.385864 0l-7.748047 7.7480316z" fill-rule="evenodd"/><path fill="#000000" fill-opacity="0.0" d="m485.47507 175.83464l7.7480164 -7.7480316l49.385864 0l0 23.244095l-7.748047 7.7480316l-49.385834 0zm0 0l49.385834 0l7.748047 -7.7480316m-7.748047 7.7480316l0 23.244095" fill-rule="evenodd"/><path stroke="#000000" stroke-width="1.0" stroke-linejoin="round" stroke-linecap="butt" d="m485.47507 175.83464l7.7480164 -7.7480316l49.385864 0l0 23.244095l-7.748047 7.7480316l-49.385834 0zm0 0l49.385834 0l7.748047 -7.7480316m-7.748047 7.7480316l0 23.244095" fill-rule="evenodd"/><path fill="#000000" d="m497.2461 190.13669l0 -5.734375l4.140625 0l0 0.6875l-3.390625 0l0 1.75l3.171875 0l0 0.671875l-3.171875 0l0 1.953125l3.515625 0l0 0.671875l-4.265625 0zm5.2265625 0l0 -4.15625l0.625 0l0 0.59375q0.46875 -0.6875 1.328125 -0.6875q0.375 0 0.6875 0.140625q0.3125 0.140625 0.46875 0.359375q0.15625 0.21875 0.21875 0.515625q0.046875 0.1875 0.046875 0.6875l0 2.546875l-0.703125 0l0 -2.53125q0 -0.421875 -0.09375 -0.625q-0.078125 -0.21875 -0.296875 -0.34375q-0.203125 -0.140625 -0.484375 -0.140625q-0.4375 0 -0.765625 0.296875q-0.328125 0.28125 -0.328125 1.078125l0 2.265625l-0.703125 0zm4.3242188 0.34375l0.671875 0.109375q0.046875 0.3125 0.25 0.453125q0.25 0.203125 0.703125 0.203125q0.5 0 0.765625 -0.203125q0.265625 -0.1875 0.359375 -0.546875q0.046875 -0.21875 0.046875 -0.90625q-0.46875 0.546875 -1.15625 0.546875q-0.84375 0 -1.3125 -0.609375q-0.46875 -0.625 -0.46875 -1.484375q0 -0.59375 0.203125 -1.09375q0.21875 -0.515625 0.625 -0.78125q0.40625 -0.28125 0.96875 -0.28125q0.734375 0 1.203125 0.59375l0 -0.5l0.65625 0l0 3.59375q0 0.96875 -0.203125 1.375q-0.203125 0.40625 -0.625 0.640625q-0.421875 0.234375 -1.046875 0.234375q-0.75 0 -1.203125 -0.34375q-0.453125 -0.328125 -0.4375 -1.0zm0.578125 -2.5q0 0.828125 0.3125 1.203125q0.328125 0.375 0.828125 0.375q0.484375 0 0.8125 -0.375q0.328125 -0.375 0.328125 -1.171875q0 -0.765625 -0.34375 -1.140625q-0.34375 -0.390625 -0.8125 -0.390625q-0.46875 0 -0.796875 0.375q-0.328125 0.375 -0.328125 1.125zm3.9804688 2.15625l0 -4.15625l0.640625 0l0 0.640625q0.234375 -0.453125 0.4375 -0.59375q0.21875 -0.140625 0.453125 -0.140625q0.359375 0 0.734375 0.234375l-0.25 0.65625q-0.25 -0.15625 -0.515625 -0.15625q-0.234375 0 -0.421875 0.140625q-0.171875 0.140625 -0.25 0.375q-0.125 0.375 -0.125 0.828125l0 2.171875l-0.703125 0zm5.3828125 -0.515625q-0.390625 0.328125 -0.75 0.46875q-0.359375 0.140625 -0.78125 0.140625q-0.671875 0 -1.046875 -0.328125q-0.359375 -0.34375 -0.359375 -0.859375q0 -0.3125 0.125 -0.5625q0.140625 -0.25 0.359375 -0.390625q0.234375 -0.15625 0.515625 -0.234375q0.203125 -0.0625 0.625 -0.109375q0.859375 -0.109375 1.25 -0.25q0.015625 -0.140625 0.015625 -0.171875q0 -0.4375 -0.203125 -0.609375q-0.265625 -0.234375 -0.796875 -0.234375q-0.5 0 -0.734375 0.171875q-0.234375 0.171875 -0.359375 0.609375l-0.6875 -0.09375q0.09375 -0.4375 0.3125 -0.703125q0.21875 -0.28125 0.625 -0.421875q0.40625 -0.15625 0.9375 -0.15625q0.53125 0 0.859375 0.125q0.34375 0.125 0.5 0.328125q0.15625 0.1875 0.21875 0.46875q0.03125 0.1875 0.03125 0.65625l0 0.9375q0 0.96875 0.046875 1.234375q0.046875 0.265625 0.171875 0.5l-0.734375 0q-0.109375 -0.21875 -0.140625 -0.515625zm-0.0625 -1.5625q-0.375 0.15625 -1.140625 0.265625q-0.4375 0.0625 -0.625 0.140625q-0.171875 0.078125 -0.265625 0.234375q-0.09375 0.140625 -0.09375 0.328125q0 0.28125 0.203125 0.46875q0.21875 0.1875 0.625 0.1875q0.40625 0 0.71875 -0.171875q0.328125 -0.1875 0.46875 -0.5q0.109375 -0.234375 0.109375 -0.703125l0 -0.25zm1.8085938 -2.84375l0 -0.8125l0.703125 0l0 0.8125l-0.703125 0zm0 4.921875l0 -4.15625l0.703125 0l0 4.15625l-0.703125 0zm1.4960938 -1.234375l0.6875 -0.109375q0.0625 0.40625 0.328125 0.640625q0.265625 0.21875 0.75 0.21875q0.484375 0 0.71875 -0.1875q0.234375 -0.203125 0.234375 -0.46875q0 -0.25 -0.203125 -0.375q-0.140625 -0.09375 -0.71875 -0.25q-0.78125 -0.1875 -1.078125 -0.328125q-0.296875 -0.140625 -0.453125 -0.390625q-0.15625 -0.265625 -0.15625 -0.5625q0 -0.28125 0.125 -0.515625q0.140625 -0.234375 0.359375 -0.390625q0.15625 -0.125 0.4375 -0.203125q0.28125 -0.09375 0.609375 -0.09375q0.484375 0 0.859375 0.140625q0.375 0.140625 0.546875 0.390625q0.171875 0.234375 0.234375 0.640625l-0.6875 0.09375q-0.046875 -0.328125 -0.265625 -0.5q-0.21875 -0.1875 -0.640625 -0.1875q-0.484375 0 -0.6875 0.171875q-0.203125 0.15625 -0.203125 0.375q0 0.125 0.078125 0.234375q0.09375 0.125 0.28125 0.1875q0.09375 0.046875 0.609375 0.1875q0.75 0.203125 1.046875 0.328125q0.296875 0.125 0.453125 0.375q0.171875 0.234375 0.171875 0.59375q0 0.34375 -0.203125 0.65625q-0.203125 0.3125 -0.59375 0.484375q-0.375 0.171875 -0.875 0.171875q-0.796875 0 -1.234375 -0.328125q-0.421875 -0.34375 -0.53125 -1.0z" fill-rule="nonzero"/><path fill="#efefef" d="m355.62466 175.83464l49.385834 0l0 23.244095l-49.385834 0z" fill-rule="evenodd"/><path fill="#bfbfbf" d="m405.0105 175.83464l7.748047 -7.7480316l0 23.244095l-7.748047 7.7480316z" fill-rule="evenodd"/><path fill="#f2f2f2" d="m355.62466 175.83464l7.748047 -7.7480316l49.385834 0l-7.748047 7.7480316z" fill-rule="evenodd"/><path fill="#000000" fill-opacity="0.0" d="m355.62466 175.83464l7.748047 -7.7480316l49.385834 0l0 23.244095l-7.748047 7.7480316l-49.385834 0zm0 0l49.385834 0l7.748047 -7.7480316m-7.748047 7.7480316l0 23.244095" fill-rule="evenodd"/><path stroke="#000000" stroke-width="1.0" stroke-linejoin="round" stroke-linecap="butt" d="m355.62466 175.83464l7.748047 -7.7480316l49.385834 0l0 23.244095l-7.748047 7.7480316l-49.385834 0zm0 0l49.385834 0l7.748047 -7.7480316m-7.748047 7.7480316l0 23.244095" fill-rule="evenodd"/><path fill="#000000" d="m367.0672 191.18481l0 -4.78125l0.53125 0l0 0.453125q0.1875 -0.265625 0.421875 -0.390625q0.25 -0.140625 0.578125 -0.140625q0.453125 0 0.78125 0.234375q0.34375 0.21875 0.515625 0.640625q0.171875 0.40625 0.171875 0.90625q0 0.53125 -0.1875 0.953125q-0.1875 0.421875 -0.5625 0.65625q-0.359375 0.21875 -0.75 0.21875q-0.296875 0 -0.53125 -0.125q-0.234375 -0.125 -0.375 -0.3125l0 1.6875l-0.59375 0zm0.53125 -3.03125q0 0.65625 0.265625 0.984375q0.28125 0.3125 0.65625 0.3125q0.390625 0 0.671875 -0.328125q0.28125 -0.328125 0.28125 -1.015625q0 -0.671875 -0.28125 -1.0q-0.265625 -0.328125 -0.640625 -0.328125q-0.375 0 -0.671875 0.359375q-0.28125 0.34375 -0.28125 1.015625zm3.2643738 1.703125l0 -4.765625l0.625 0l0 1.953125l2.484375 0l0 -1.953125l0.625 0l0 4.765625l-0.625 0l0 -2.25l-2.484375 0l0 2.25l-0.625 0zm6.640625 0l0 -4.765625l1.640625 0q0.546875 0 0.84375 0.0625q0.40625 0.09375 0.703125 0.34375q0.375 0.328125 0.5625 0.828125q0.1875 0.484375 0.1875 1.125q0 0.546875 -0.125 0.96875q-0.125 0.40625 -0.328125 0.6875q-0.203125 0.265625 -0.4375 0.4375q-0.234375 0.15625 -0.5625 0.234375q-0.328125 0.078125 -0.765625 0.078125l-1.71875 0zm0.625 -0.5625l1.015625 0q0.46875 0 0.734375 -0.078125q0.28125 -0.09375 0.4375 -0.25q0.21875 -0.234375 0.34375 -0.609375q0.125 -0.375 0.125 -0.921875q0 -0.75 -0.25 -1.140625q-0.234375 -0.40625 -0.59375 -0.546875q-0.25 -0.09375 -0.8125 -0.09375l-1.0 0l0 3.640625zm3.8850708 -1.15625q0 -0.96875 0.53125 -1.421875q0.453125 -0.390625 1.09375 -0.390625q0.703125 0 1.15625 0.46875q0.453125 0.46875 0.453125 1.28125q0 0.671875 -0.203125 1.0625q-0.1875 0.375 -0.578125 0.59375q-0.375 0.203125 -0.828125 0.203125q-0.734375 0 -1.1875 -0.453125q-0.4375 -0.46875 -0.4375 -1.34375zm0.609375 0q0 0.65625 0.28125 0.984375q0.296875 0.328125 0.734375 0.328125q0.4375 0 0.71875 -0.328125q0.296875 -0.328125 0.296875 -1.015625q0 -0.640625 -0.296875 -0.96875q-0.296875 -0.328125 -0.71875 -0.328125q-0.4375 0 -0.734375 0.328125q-0.28125 0.328125 -0.28125 1.0zm3.9518738 1.71875l-1.0625 -3.453125l0.609375 0l0.546875 2.0l0.203125 0.734375q0.015625 -0.0625 0.1875 -0.71875l0.546875 -2.015625l0.59375 0l0.515625 2.0l0.171875 0.65625l0.203125 -0.65625l0.59375 -2.0l0.5625 0l-1.078125 3.453125l-0.609375 0l-0.546875 -2.0625l-0.125 -0.59375l-0.703125 2.65625l-0.609375 0zm4.166321 0l0 -3.453125l0.53125 0l0 0.5q0.375 -0.578125 1.09375 -0.578125q0.3125 0 0.578125 0.109375q0.265625 0.109375 0.390625 0.296875q0.125 0.1875 0.1875 0.4375q0.03125 0.15625 0.03125 0.5625l0 2.125l-0.59375 0l0 -2.09375q0 -0.359375 -0.078125 -0.53125q-0.0625 -0.1875 -0.234375 -0.28125q-0.171875 -0.109375 -0.40625 -0.109375q-0.375 0 -0.640625 0.234375q-0.265625 0.234375 -0.265625 0.890625l0 1.890625l-0.59375 0z" fill-rule="nonzero"/><path fill="#efefef" d="m478.48557 189.71129l-18.073608 0l0 79.05513l3.5641785 0l-7.1705017 7.2125854l-7.170471 -7.2125854l3.5641785 0l0 -86.26773l25.286224 0z" fill-rule="evenodd"/><path stroke="#000000" stroke-width="1.0" stroke-linejoin="round" stroke-linecap="butt" d="m478.48557 189.71129l-18.073608 0l0 79.05513l3.5641785 0l-7.1705017 7.2125854l-7.170471 -7.2125854l3.5641785 0l0 -86.26773l25.286224 0z" fill-rule="evenodd"/><path fill="#efefef" d="m416.29922 189.94751l18.665527 0l0 78.58267l-3.6809082 0l7.4053345 7.448822l7.405304 -7.448822l-3.6809082 0l0 -86.031494l-26.11435 0z" fill-rule="evenodd"/><path stroke="#000000" stroke-width="1.0" stroke-linejoin="round" stroke-linecap="butt" d="m416.29922 189.94751l18.665527 0l0 78.58267l-3.6809082 0l7.4053345 7.448822l7.405304 -7.448822l-3.6809082 0l0 -86.031494l-26.11435 0z" fill-rule="evenodd"/><path fill="#efefef" d="m604.3097 306.91864l88.252014 0l0 39.40158l-88.252014 0z" fill-rule="evenodd"/><path fill="#bfbfbf" d="m692.5617 306.91864l13.13385 -13.13385l0 39.40155l-13.13385 13.133881z" fill-rule="evenodd"/><path fill="#f2f2f2" d="m604.3097 306.91864l13.13385 -13.13385l88.252014 0l-13.13385 13.13385z" fill-rule="evenodd"/><path fill="#000000" fill-opacity="0.0" d="m604.3097 306.91864l13.13385 -13.13385l88.252014 0l0 39.40155l-13.13385 13.133881l-88.252014 0zm0 0l88.252014 0l13.13385 -13.13385m-13.13385 13.13385l0 39.40158" fill-rule="evenodd"/><path stroke="#000000" stroke-width="1.0" stroke-linejoin="round" stroke-linecap="butt" d="m604.3097 306.91864l13.13385 -13.13385l88.252014 0l0 39.40155l-13.13385 13.133881l-88.252014 0zm0 0l88.252014 0l13.13385 -13.13385m-13.13385 13.13385l0 39.40158" fill-rule="evenodd"/><path fill="#000000" d="m617.88043 330.35944l0 -7.625l5.515625 0l0 0.890625l-4.5 0l0 2.34375l4.21875 0l0 0.890625l-4.21875 0l0 2.59375l4.671875 0l0 0.90625l-5.6875 0zm10.576416 -0.6875q-0.53125 0.453125 -1.015625 0.640625q-0.46875 0.171875 -1.015625 0.171875q-0.921875 0 -1.40625 -0.4375q-0.484375 -0.453125 -0.484375 -1.140625q0 -0.40625 0.171875 -0.734375q0.1875 -0.34375 0.484375 -0.546875q0.3125 -0.203125 0.6875 -0.3125q0.265625 -0.0625 0.828125 -0.140625q1.125 -0.125 1.671875 -0.3125q0 -0.203125 0 -0.25q0 -0.578125 -0.265625 -0.8125q-0.359375 -0.3125 -1.0625 -0.3125q-0.65625 0 -0.984375 0.234375q-0.3125 0.234375 -0.453125 0.8125l-0.921875 -0.125q0.125 -0.578125 0.40625 -0.9375q0.296875 -0.375 0.828125 -0.5625q0.546875 -0.203125 1.25 -0.203125q0.71875 0 1.15625 0.171875q0.4375 0.171875 0.640625 0.421875q0.21875 0.25 0.296875 0.640625q0.046875 0.234375 0.046875 0.859375l0 1.25q0 1.296875 0.0625 1.65625q0.0625 0.34375 0.234375 0.65625l-0.96875 0q-0.15625 -0.296875 -0.1875 -0.6875zm-0.078125 -2.078125q-0.515625 0.203125 -1.53125 0.34375q-0.578125 0.078125 -0.828125 0.1875q-0.234375 0.109375 -0.359375 0.3125q-0.125 0.1875 -0.125 0.4375q0 0.375 0.28125 0.625q0.28125 0.25 0.828125 0.25q0.53125 0 0.953125 -0.234375q0.421875 -0.234375 0.625 -0.65625q0.15625 -0.3125 0.15625 -0.9375l0 -0.328125zm6.0202637 2.765625l0 -0.8125q-0.65625 0.9375 -1.75 0.9375q-0.5 0 -0.921875 -0.1875q-0.421875 -0.1875 -0.625 -0.46875q-0.203125 -0.28125 -0.296875 -0.703125q-0.046875 -0.265625 -0.046875 -0.875l0 -3.421875l0.9375 0l0 3.0625q0 0.734375 0.046875 1.0q0.09375 0.359375 0.375 0.578125q0.296875 0.203125 0.703125 0.203125q0.421875 0 0.796875 -0.203125q0.375 -0.21875 0.515625 -0.59375q0.15625 -0.375 0.15625 -1.078125l0 -2.96875l0.9375 0l0 5.53125l-0.828125 0zm5.262146 0l0 -5.53125l0.84375 0l0 0.78125q0.25 -0.40625 0.6875 -0.65625q0.4375 -0.25 0.984375 -0.25q0.609375 0 1.0 0.265625q0.390625 0.25 0.5625 0.703125q0.65625 -0.96875 1.703125 -0.96875q0.828125 0 1.265625 0.46875q0.4375 0.453125 0.4375 1.390625l0 3.796875l-0.921875 0l0 -3.484375q0 -0.5625 -0.09375 -0.796875q-0.09375 -0.25 -0.34375 -0.40625q-0.234375 -0.15625 -0.546875 -0.15625q-0.59375 0 -0.984375 0.390625q-0.375 0.390625 -0.375 1.25l0 3.203125l-0.9375 0l0 -3.59375q0 -0.625 -0.234375 -0.9375q-0.21875 -0.3125 -0.75 -0.3125q-0.390625 0 -0.734375 0.21875q-0.328125 0.203125 -0.484375 0.609375q-0.140625 0.390625 -0.140625 1.15625l0 2.859375l-0.9375 0zm12.657959 -1.78125l0.96875 0.125q-0.234375 0.84375 -0.859375 1.3125q-0.609375 0.46875 -1.578125 0.46875q-1.203125 0 -1.921875 -0.75q-0.703125 -0.75 -0.703125 -2.09375q0 -1.390625 0.71875 -2.15625q0.71875 -0.78125 1.859375 -0.78125q1.109375 0 1.8125 0.765625q0.703125 0.75 0.703125 2.125q0 0.078125 0 0.234375l-4.125 0q0.046875 0.921875 0.515625 1.40625q0.46875 0.484375 1.15625 0.484375q0.515625 0 0.875 -0.265625q0.359375 -0.28125 0.578125 -0.875zm-3.078125 -1.515625l3.09375 0q-0.0625 -0.6875 -0.359375 -1.046875q-0.453125 -0.53125 -1.15625 -0.53125q-0.640625 0 -1.09375 0.4375q-0.4375 0.421875 -0.484375 1.140625zm0.75 -2.921875l0.6875 -1.453125l1.234375 0l-1.140625 1.453125l-0.78125 0zm4.4577637 6.21875l0 -7.625l0.9375 0l0 7.625l-0.9375 0zm5.9924927 -0.6875q-0.53125 0.453125 -1.015625 0.640625q-0.46875 0.171875 -1.015625 0.171875q-0.921875 0 -1.40625 -0.4375q-0.484375 -0.453125 -0.484375 -1.140625q0 -0.40625 0.171875 -0.734375q0.1875 -0.34375 0.484375 -0.546875q0.3125 -0.203125 0.6875 -0.3125q0.265625 -0.0625 0.828125 -0.140625q1.125 -0.125 1.671875 -0.3125q0 -0.203125 0 -0.25q0 -0.578125 -0.265625 -0.8125q-0.359375 -0.3125 -1.0625 -0.3125q-0.65625 0 -0.984375 0.234375q-0.3125 0.234375 -0.453125 0.8125l-0.921875 -0.125q0.125 -0.578125 0.40625 -0.9375q0.296875 -0.375 0.828125 -0.5625q0.546875 -0.203125 1.25 -0.203125q0.71875 0 1.15625 0.171875q0.4375 0.171875 0.640625 0.421875q0.21875 0.25 0.296875 0.640625q0.046875 0.234375 0.046875 0.859375l0 1.25q0 1.296875 0.0625 1.65625q0.0625 0.34375 0.234375 0.65625l-0.96875 0q-0.15625 -0.296875 -0.1875 -0.6875zm-0.078125 -2.078125q-0.515625 0.203125 -1.53125 0.34375q-0.578125 0.078125 -0.828125 0.1875q-0.234375 0.109375 -0.359375 0.3125q-0.125 0.1875 -0.125 0.4375q0 0.375 0.28125 0.625q0.28125 0.25 0.828125 0.25q0.53125 0 0.953125 -0.234375q0.421875 -0.234375 0.625 -0.65625q0.15625 -0.3125 0.15625 -0.9375l0 -0.328125zm2.3952026 2.765625l0 -5.53125l0.84375 0l0 0.796875q0.609375 -0.921875 1.75 -0.921875q0.5 0 0.921875 0.1875q0.421875 0.171875 0.625 0.46875q0.21875 0.296875 0.296875 0.6875q0.046875 0.265625 0.046875 0.921875l0 3.390625l-0.9375 0l0 -3.359375q0 -0.578125 -0.109375 -0.859375q-0.109375 -0.28125 -0.390625 -0.453125q-0.265625 -0.171875 -0.640625 -0.171875q-0.59375 0 -1.03125 0.390625q-0.4375 0.375 -0.4375 1.4375l0 3.015625l-0.9375 0zm5.7546387 0.453125l0.90625 0.140625q0.0625 0.421875 0.328125 0.609375q0.34375 0.265625 0.9375 0.265625q0.65625 0 1.0 -0.265625q0.359375 -0.25 0.484375 -0.71875q0.078125 -0.296875 0.078125 -1.203125q-0.625 0.71875 -1.53125 0.71875q-1.140625 0 -1.765625 -0.8125q-0.625 -0.828125 -0.625 -1.984375q0 -0.78125 0.28125 -1.453125q0.296875 -0.671875 0.828125 -1.03125q0.546875 -0.375 1.28125 -0.375q0.984375 0 1.609375 0.796875l0 -0.671875l0.875 0l0 4.78125q0 1.296875 -0.265625 1.828125q-0.265625 0.546875 -0.84375 0.859375q-0.5625 0.3125 -1.390625 0.3125q-0.984375 0 -1.59375 -0.453125q-0.609375 -0.4375 -0.59375 -1.34375zm0.78125 -3.3125q0 1.078125 0.421875 1.578125q0.4375 0.5 1.078125 0.5q0.65625 0 1.09375 -0.484375q0.4375 -0.5 0.4375 -1.5625q0 -1.015625 -0.453125 -1.53125q-0.453125 -0.515625 -1.09375 -0.515625q-0.609375 0 -1.046875 0.515625q-0.4375 0.5 -0.4375 1.5zm9.098389 1.078125l0.96875 0.125q-0.234375 0.84375 -0.859375 1.3125q-0.609375 0.46875 -1.578125 0.46875q-1.203125 0 -1.921875 -0.75q-0.703125 -0.75 -0.703125 -2.09375q0 -1.390625 0.71875 -2.15625q0.71875 -0.78125 1.859375 -0.78125q1.109375 0 1.8125 0.765625q0.703125 0.75 0.703125 2.125q0 0.078125 0 0.234375l-4.125 0q0.046875 0.921875 0.515625 1.40625q0.46875 0.484375 1.15625 0.484375q0.515625 0 0.875 -0.265625q0.359375 -0.28125 0.578125 -0.875zm-3.078125 -1.515625l3.09375 0q-0.0625 -0.6875 -0.359375 -1.046875q-0.453125 -0.53125 -1.15625 -0.53125q-0.640625 0 -1.09375 0.4375q-0.4375 0.421875 -0.484375 1.140625zm0.75 -2.921875l0.6875 -1.453125l1.234375 0l-1.140625 1.453125l-0.78125 0z" fill-rule="nonzero"/><path fill="#efefef" d="m502.96588 318.4777l0.40945435 0l0 6.551178l-0.40945435 0zm0.8189087 0l0.8188782 0l0 6.551178l-0.8188782 0zm1.2283325 0l83.74805 0l0 -3.2756042l6.5511475 6.5512085l-6.5511475 6.551178l0 -3.2756042l-83.74805 0z" fill-rule="evenodd"/><path stroke="#000000" stroke-width="1.0" stroke-linejoin="round" stroke-linecap="butt" d="m502.96588 318.4777l0.40945435 0l0 6.551178l-0.40945435 0zm0.8189087 0l0.8188782 0l0 6.551178l-0.8188782 0zm1.2283325 0l83.74805 0l0 -3.2756042l6.5511475 6.5512085l-6.5511475 6.551178l0 -3.2756042l-83.74805 0z" fill-rule="evenodd"/><path fill="#efefef" d="m728.6811 335.39108l0 153.3937c0 6.5447693 5.305603 11.850372 11.850403 11.850372l8.464539 0l0 3.3858337l6.7716675 -6.7716675l-6.7716675 -6.771637l0 3.3858337l-8.464539 0l0 0c-2.8049316 0 -5.0787354 -2.2738342 -5.0787354 -5.0787354l0 -153.3937z" fill-rule="evenodd"/><path stroke="#000000" stroke-width="1.0" stroke-linejoin="round" stroke-linecap="butt" d="m728.6811 335.39108l0 153.3937c0 6.5447693 5.305603 11.850372 11.850403 11.850372l8.464539 0l0 3.3858337l6.7716675 -6.7716675l-6.7716675 -6.771637l0 3.3858337l-8.464539 0l0 0c-2.8049316 0 -5.0787354 -2.2738342 -5.0787354 -5.0787354l0 -153.3937z" fill-rule="evenodd"/><path fill="#efefef" d="m722.7008 312.72833l0 0c0 -5.279297 3.9553833 -9.5590515 8.834656 -9.5590515l0 0c2.3430786 0 4.59021 1.0071106 6.2470093 2.7998047c1.6567993 1.7926636 2.5875854 4.2240295 2.5875854 6.759247l0 0c0 5.2793274 -3.9553833 9.559082 -8.834595 9.559082l0 0c-4.8792725 0 -8.834656 -4.2797546 -8.834656 -9.559082z" fill-rule="evenodd"/><path stroke="#ffffff" stroke-width="1.0" stroke-linejoin="round" stroke-linecap="butt" d="m722.7008 312.72833l0 0c0 -5.279297 3.9553833 -9.5590515 8.834656 -9.5590515l0 0c2.3430786 0 4.59021 1.0071106 6.2470093 2.7998047c1.6567993 1.7926636 2.5875854 4.2240295 2.5875854 6.759247l0 0c0 5.2793274 -3.9553833 9.559082 -8.834595 9.559082l0 0c-4.8792725 0 -8.834656 -4.2797546 -8.834656 -9.559082z" fill-rule="evenodd"/><path fill="#efefef" d="m728.68243 335.39108l0 67.24536l0 0c0 8.148773 6.605835 14.754639 14.754578 14.754639l5.560364 0l0 3.3858337l6.7716675 -6.7716675l-6.7716675 -6.7716675l0 3.3858337l-5.560364 0l0 0c-4.4088745 0 -7.982971 -3.5740967 -7.982971 -7.982971l0 -67.24536z" fill-rule="evenodd"/><path stroke="#000000" stroke-width="1.0" stroke-linejoin="round" stroke-linecap="butt" d="m728.68243 335.39108l0 67.24536l0 0c0 8.148773 6.605835 14.754639 14.754578 14.754639l5.560364 0l0 3.3858337l6.7716675 -6.7716675l-6.7716675 -6.7716675l0 3.3858337l-5.560364 0l0 0c-4.4088745 0 -7.982971 -3.5740967 -7.982971 -7.982971l0 -67.24536z" fill-rule="evenodd"/><path fill="#efefef" d="m728.68 287.46194l0 -163.37796c0 -6.544792 5.305603 -11.850395 11.850403 -11.850395l8.464539 0l0 -3.385826l6.7716675 6.771652l-6.7716675 6.771652l0 -3.385826l-8.464539 0l0 0c-2.8049316 0 -5.0787354 2.2738266 -5.0787354 5.078743l0 163.37796z" fill-rule="evenodd"/><path stroke="#000000" stroke-width="1.0" stroke-linejoin="round" stroke-linecap="butt" d="m728.68 287.46194l0 -163.37796c0 -6.544792 5.305603 -11.850395 11.850403 -11.850395l8.464539 0l0 -3.385826l6.7716675 6.771652l-6.7716675 6.771652l0 -3.385826l-8.464539 0l0 0c-2.8049316 0 -5.0787354 2.2738266 -5.0787354 5.078743l0 163.37796z" fill-rule="evenodd"/><path fill="#efefef" d="m728.68134 287.48376l0 -72.31625l0 0c0 -8.148758 6.605835 -14.754623 14.754578 -14.754623l5.560364 0l0 -3.3858185l6.7716675 6.771652l-6.7716675 6.771652l0 -3.3858337l-5.560364 0l0 0c-4.4088745 0 -7.982971 3.5740967 -7.982971 7.982971l0 72.31625z" fill-rule="evenodd"/><path stroke="#000000" stroke-width="1.0" stroke-linejoin="round" stroke-linecap="butt" d="m728.68134 287.48376l0 -72.31625l0 0c0 -8.148758 6.605835 -14.754623 14.754578 -14.754623l5.560364 0l0 -3.3858185l6.7716675 6.771652l-6.7716675 6.771652l0 -3.3858337l-5.560364 0l0 0c-4.4088745 0 -7.982971 3.5740967 -7.982971 7.982971l0 72.31625z" fill-rule="evenodd"/><path fill="#efefef" d="m798.9134 70.36352l0 0c0 1.2198105 3.9553833 2.208664 8.834656 2.208664c4.8792114 0 8.834656 -0.98885345 8.834656 -2.208664l0 69.850395c0 1.2198029 -3.9554443 2.208664 -8.834656 2.208664c-4.8792725 0 -8.834656 -0.9888611 -8.834656 -2.208664z" fill-rule="evenodd"/><path fill="#f5f5f5" d="m798.9134 70.36352l0 0c0 -1.2198105 3.9553833 -2.208664 8.834656 -2.208664c4.8792114 0 8.834656 0.98885345 8.834656 2.208664l0 0c0 1.2198105 -3.9554443 2.208664 -8.834656 2.208664c-4.8792725 0 -8.834656 -0.98885345 -8.834656 -2.208664z" fill-rule="evenodd"/><path fill="#000000" fill-opacity="0.0" d="m816.5827 70.36352l0 0c0 1.2198105 -3.9554443 2.208664 -8.834656 2.208664c-4.8792725 0 -8.834656 -0.98885345 -8.834656 -2.208664l0 0c0 -1.2198105 3.9553833 -2.208664 8.834656 -2.208664c4.8792114 0 8.834656 0.98885345 8.834656 2.208664l0 69.850395c0 1.2198029 -3.9554443 2.208664 -8.834656 2.208664c-4.8792725 0 -8.834656 -0.9888611 -8.834656 -2.208664l0 -69.850395" fill-rule="evenodd"/><path stroke="#000000" stroke-width="1.0" stroke-linejoin="round" stroke-linecap="butt" d="m816.5827 70.36352l0 0c0 1.2198105 -3.9554443 2.208664 -8.834656 2.208664c-4.8792725 0 -8.834656 -0.98885345 -8.834656 -2.208664l0 0c0 -1.2198105 3.9553833 -2.208664 8.834656 -2.208664c4.8792114 0 8.834656 0.98885345 8.834656 2.208664l0 69.850395c0 1.2198029 -3.9554443 2.208664 -8.834656 2.208664c-4.8792725 0 -8.834656 -0.9888611 -8.834656 -2.208664l0 -69.850395" fill-rule="evenodd"/><path fill="#efefef" d="m798.9134 170.29527l0 0c0 1.2198181 3.9553833 2.208664 8.834656 2.208664c4.8792114 0 8.834656 -0.9888458 8.834656 -2.208664l0 69.8504c0 1.2198029 -3.9554443 2.2086487 -8.834656 2.2086487c-4.8792725 0 -8.834656 -0.9888458 -8.834656 -2.2086487z" fill-rule="evenodd"/><path fill="#f5f5f5" d="m798.9134 170.29527l0 0c0 -1.2198029 3.9553833 -2.208664 8.834656 -2.208664c4.8792114 0 8.834656 0.9888611 8.834656 2.208664l0 0c0 1.2198181 -3.9554443 2.208664 -8.834656 2.208664c-4.8792725 0 -8.834656 -0.9888458 -8.834656 -2.208664z" fill-rule="evenodd"/><path fill="#000000" fill-opacity="0.0" d="m816.5827 170.29527l0 0c0 1.2198181 -3.9554443 2.208664 -8.834656 2.208664c-4.8792725 0 -8.834656 -0.9888458 -8.834656 -2.208664l0 0c0 -1.2198029 3.9553833 -2.208664 8.834656 -2.208664c4.8792114 0 8.834656 0.9888611 8.834656 2.208664l0 69.8504c0 1.2198029 -3.9554443 2.2086487 -8.834656 2.2086487c-4.8792725 0 -8.834656 -0.9888458 -8.834656 -2.2086487l0 -69.8504" fill-rule="evenodd"/><path stroke="#000000" stroke-width="1.0" stroke-linejoin="round" stroke-linecap="butt" d="m816.5827 170.29527l0 0c0 1.2198181 -3.9554443 2.208664 -8.834656 2.208664c-4.8792725 0 -8.834656 -0.9888458 -8.834656 -2.208664l0 0c0 -1.2198029 3.9553833 -2.208664 8.834656 -2.208664c4.8792114 0 8.834656 0.9888611 8.834656 2.208664l0 69.8504c0 1.2198029 -3.9554443 2.2086487 -8.834656 2.2086487c-4.8792725 0 -8.834656 -0.9888458 -8.834656 -2.2086487l0 -69.8504" fill-rule="evenodd"/><path fill="#efefef" d="m798.9134 377.06168l0 0c0 1.2198181 3.9553833 2.2086792 8.834656 2.2086792c4.8792114 0 8.834656 -0.9888611 8.834656 -2.2086792l0 69.8504c0 1.2198181 -3.9554443 2.2086487 -8.834656 2.2086487c-4.8792725 0 -8.834656 -0.98883057 -8.834656 -2.2086487z" fill-rule="evenodd"/><path fill="#f5f5f5" d="m798.9134 377.06168l0 0c0 -1.2198181 3.9553833 -2.2086487 8.834656 -2.2086487c4.8792114 0 8.834656 0.98883057 8.834656 2.2086487l0 0c0 1.2198181 -3.9554443 2.2086792 -8.834656 2.2086792c-4.8792725 0 -8.834656 -0.9888611 -8.834656 -2.2086792z" fill-rule="evenodd"/><path fill="#000000" fill-opacity="0.0" d="m816.5827 377.06168l0 0c0 1.2198181 -3.9554443 2.2086792 -8.834656 2.2086792c-4.8792725 0 -8.834656 -0.9888611 -8.834656 -2.2086792l0 0c0 -1.2198181 3.9553833 -2.2086487 8.834656 -2.2086487c4.8792114 0 8.834656 0.98883057 8.834656 2.2086487l0 69.8504c0 1.2198181 -3.9554443 2.2086487 -8.834656 2.2086487c-4.8792725 0 -8.834656 -0.98883057 -8.834656 -2.2086487l0 -69.8504" fill-rule="evenodd"/><path stroke="#000000" stroke-width="1.0" stroke-linejoin="round" stroke-linecap="butt" d="m816.5827 377.06168l0 0c0 1.2198181 -3.9554443 2.2086792 -8.834656 2.2086792c-4.8792725 0 -8.834656 -0.9888611 -8.834656 -2.2086792l0 0c0 -1.2198181 3.9553833 -2.2086487 8.834656 -2.2086487c4.8792114 0 8.834656 0.98883057 8.834656 2.2086487l0 69.8504c0 1.2198181 -3.9554443 2.2086487 -8.834656 2.2086487c-4.8792725 0 -8.834656 -0.98883057 -8.834656 -2.2086487l0 -69.8504" fill-rule="evenodd"/><path fill="#efefef" d="m798.9134 470.5l0 0c0 1.2198181 3.9553833 2.2086487 8.834656 2.2086487c4.8792114 0 8.834656 -0.98883057 8.834656 -2.2086487l0 69.8504c0 1.2197876 -3.9554443 2.2086792 -8.834656 2.2086792c-4.8792725 0 -8.834656 -0.9888916 -8.834656 -2.2086792z" fill-rule="evenodd"/><path fill="#f5f5f5" d="m798.9134 470.5l0 0c0 -1.2198181 3.9553833 -2.2086487 8.834656 -2.2086487c4.8792114 0 8.834656 0.98883057 8.834656 2.2086487l0 0c0 1.2198181 -3.9554443 2.2086487 -8.834656 2.2086487c-4.8792725 0 -8.834656 -0.98883057 -8.834656 -2.2086487z" fill-rule="evenodd"/><path fill="#000000" fill-opacity="0.0" d="m816.5827 470.5l0 0c0 1.2198181 -3.9554443 2.2086487 -8.834656 2.2086487c-4.8792725 0 -8.834656 -0.98883057 -8.834656 -2.2086487l0 0c0 -1.2198181 3.9553833 -2.2086487 8.834656 -2.2086487c4.8792114 0 8.834656 0.98883057 8.834656 2.2086487l0 69.8504c0 1.2197876 -3.9554443 2.2086792 -8.834656 2.2086792c-4.8792725 0 -8.834656 -0.9888916 -8.834656 -2.2086792l0 -69.8504" fill-rule="evenodd"/><path stroke="#000000" stroke-width="1.0" stroke-linejoin="round" stroke-linecap="butt" d="m816.5827 470.5l0 0c0 1.2198181 -3.9554443 2.2086487 -8.834656 2.2086487c-4.8792725 0 -8.834656 -0.98883057 -8.834656 -2.2086487l0 0c0 -1.2198181 3.9553833 -2.2086487 8.834656 -2.2086487c4.8792114 0 8.834656 0.98883057 8.834656 2.2086487l0 69.8504c0 1.2197876 -3.9554443 2.2086792 -8.834656 2.2086792c-4.8792725 0 -8.834656 -0.9888916 -8.834656 -2.2086792l0 -69.8504" fill-rule="evenodd"/></g></svg>